# xmcd
#
# Track frame offsets:
#	150
#	28970
#	39958
#	50923
#	62558
#	73934
#	101931
#	114687
#	127382
#	146392
#	160399
#	173856
#	184534
#	197515
#	211067
#	222913
#	237057
#	249364
#	261911
#	279666
#	291439
#
# Disc length: 3993
#
# Revision: 1
# Processed by: cddbd v1.5.1PL0 Copyright (c) Steve Scherf et al.
# Submitted via: OrangeCD 5.2
# Normalized: r0:DSETVAR1
#
DISCID=500f9715
DTITLE=Various Artist - Best Of The Blues
DYEAR=2001
DGENRE=Blues
TTITLE0=Joe Turner - Stormy Monday Blues
TTITLE1=B.B. King - Catfish Blues
TTITLE2=Roy Milton - Information Blues
TTITLE3=Billie Holiday - Nice Work If You Can Get It
TTITLE4=John Lee Hooker - Boom Boom
TTITLE5=Johnny Otis - Barrelhouse Blues
TTITLE6=John Lee Hooker - Frisco Blues
TTITLE7=B.B. King - Please Love Me
TTITLE8=Johnny Otis - Sio Fuse
TTITLE9=Billie Holiday - God Bless This Child
TTITLE10=John Lee Hooker - Trouble Blues
TTITLE11=Ray Charles - Hey Now
TTITLE12=Bo Diddley - Cracklin'
TTITLE13=Louis Jordan - I Got The Walkin' Blues
TTITLE14=John Lee Hooker - I'm Mad Again
TTITLE15=Ray Charles - Walkin' And Talkin'
TTITLE16=Bo Diddley - Can I Go Home With You
TTITLE17=Ray Charles - C.C. Rider
TTITLE18=John Lee Hooker - Wednesday Evening Blues
TTITLE19=B.B. King - Payin' The Cost To Be The Boss
TTITLE20=Billie Holiday - Miss Brown To You
EXTD=
EXTT0=
EXTT1=
EXTT2=
EXTT3=
EXTT4=
EXTT5=
EXTT6=
EXTT7=
EXTT8=
EXTT9=
EXTT10=
EXTT11=
EXTT12=
EXTT13=
EXTT14=
EXTT15=
EXTT16=
EXTT17=
EXTT18=
EXTT19=
EXTT20=
PLAYORDER=
